<?xml version="1.0" encoding="UTF-8" standalone="no"?>
<!DOCTYPE svg PUBLIC "-//W3C//DTD SVG 20010904//EN"
              "http://www.w3.org/TR/2001/REC-SVG-20010904/DTD/svg10.dtd">

<svg xmlns="http://www.w3.org/2000/svg"
     width="0.666667in" height="0.666667in"
     viewBox="0 0 200 200">
  <path id="Unnamed"
        fill="none" stroke="black" stroke-width="1"
        d="M 56.27,41.45
           C 56.27,41.45 31.83,44.43 31.83,44.43
             31.83,44.43 31.45,88.91 31.45,88.91
             31.45,88.91 184.62,152.62 184.62,152.62
             184.62,152.62 140.26,113.70 140.26,113.70
             140.26,113.70 136.57,116.65 136.57,116.65
             136.57,116.65 131.83,112.61 131.83,112.61
             131.83,112.61 135.35,109.39 135.35,109.39
             135.35,109.39 129.74,104.61 129.74,104.61
             129.74,104.61 125.57,108.26 125.57,108.26
             125.57,108.26 120.17,104.30 120.17,104.30
             120.17,104.30 124.87,100.30 124.87,100.30
             124.87,100.30 56.27,41.45 56.27,41.45 Z
           M 38.31,83.23
           C 38.31,83.23 184.63,152.64 184.63,152.64
             184.63,152.64 39.80,43.43 39.80,43.43
             39.80,43.43 38.31,83.22 38.31,83.22
             38.31,83.22 31.45,88.91 31.45,88.91" />
</svg>
