<?xml version="1.0" encoding="UTF-8" standalone="no"?>
<!DOCTYPE svg PUBLIC "-//W3C//DTD SVG 20010904//EN"
              "http://www.w3.org/TR/2001/REC-SVG-20010904/DTD/svg10.dtd">

<svg xmlns="http://www.w3.org/2000/svg"
     width="0.666667in" height="0.666667in"
     viewBox="0 0 200 200">
  <path id="Unnamed #3"
        fill="none" stroke="black" stroke-width="1"
        d="M 42.30,90.70
           C 42.30,90.70 42.22,93.70 42.22,93.70
             42.22,93.70 31.59,87.53 31.59,87.53
             31.59,87.53 42.30,90.70 42.30,90.70 Z
           M 82.44,105.81
           C 82.44,105.81 82.31,114.38 82.31,114.38
             82.31,114.38 64.81,104.56 64.81,104.56
             64.81,104.56 64.81,101.12 64.81,101.12
             64.81,101.12 82.44,105.81 82.44,105.81 Z
           M 90.56,109.69
           C 90.56,109.69 90.69,118.56 90.62,118.56
             90.56,118.56 110.19,124.62 110.19,124.62
             110.19,124.62 110.31,121.56 110.31,121.56
             110.31,121.56 90.56,109.69 90.56,109.69 Z
           M 134.89,131.51
           C 134.89,131.51 134.98,135.60 134.98,135.60
             134.98,135.60 147.38,138.56 147.38,138.56
             147.38,138.56 134.89,131.51 134.89,131.51 Z
           M 142.97,72.91M 19.33,85.36
           C 19.33,85.36 28.69,81.56 28.69,81.56
             28.69,81.56 110.49,71.47 110.49,71.47
             110.49,71.47 152.55,136.45 152.55,136.45
             152.55,136.45 165.23,148.89 165.23,148.89M 107.43,58.35
           C 107.43,58.35 29.00,75.19 29.00,75.19
             29.00,75.19 18.69,85.56 18.69,85.56
             18.69,85.56 68.88,112.38 68.88,112.50
             68.88,112.62 105.62,128.38 105.62,128.38
             105.62,128.38 165.25,149.00 165.25,149.00
             165.25,149.00 173.50,135.25 173.50,135.25
             173.50,135.25 143.00,72.75 143.00,72.75
             143.00,72.75 107.43,58.35 107.43,58.35 Z
           M 107.40,58.53
           C 107.40,58.53 110.50,71.44 110.50,71.44
             110.50,71.44 142.88,72.88 142.88,72.88M 143.00,72.93
           C 143.00,72.93 152.58,136.41 152.58,136.41M 86.25,102.56
           C 86.25,102.56 28.90,81.63 28.90,81.63M 152.51,136.48
           C 149.40,134.89 86.29,102.57 86.29,102.57M 28.69,81.50
           C 28.69,81.50 107.34,58.52 107.34,58.52" />
</svg>
