<?xml version="1.0" encoding="UTF-8" standalone="no"?>
<!DOCTYPE svg PUBLIC "-//W3C//DTD SVG 20010904//EN"
              "http://www.w3.org/TR/2001/REC-SVG-20010904/DTD/svg10.dtd">

<svg xmlns="http://www.w3.org/2000/svg" viewBox="0 0 200 200">
    <path id="Selection #1"
        fill="#00a545" stroke="#00a545" stroke-width="15"
        d="M 5.00,94.00
        C 5.00,94.00 5.00,104.00 5.00,104.00
        5.00,104.00 15.00,104.00 15.00,104.00
        15.00,104.00 15.00,94.00 15.00,94.00
        15.00,94.00 5.00,94.00 5.00,94.00 Z" />
    <path id="Selection #1"
        fill="#e8281c" stroke="#e8281c" stroke-width="15"
        d="M 184.00,94.00
        C 184.00,94.00 184.00,104.00 184.00,104.00
        184.00,104.00 194.00,104.00 194.00,104.00
        194.00,104.00 194.00,94.00 194.00,94.00
        194.00,94.00 184.00,94.00 184.00,94.00 Z" />
        <path id="Selection #1"
        fill="none" stroke="black" stroke-width="10"
        d="M 43.45,78.36
        C 43.45,78.36 39.27,82.09 39.27,82.09
        39.27,82.09 24.82,82.09 24.82,82.09
        24.82,82.09 20.27,85.45 20.27,85.45
        20.27,85.45 20.25,113.25 20.25,113.25
        20.25,113.25 24.81,117.12 24.81,117.12
        24.81,117.12 39.12,117.25 39.12,117.25
        39.12,117.25 43.62,120.88 43.62,120.88
        43.62,120.88 153.62,121.00 153.62,121.00
        153.62,121.00 156.73,117.27 156.73,117.27
        156.73,117.27 174.36,116.73 174.36,116.73
        174.36,116.73 178.18,113.09 178.18,113.09
        178.18,113.09 178.12,85.56 178.12,85.56
        178.12,85.56 174.62,81.94 174.62,81.94
        174.62,81.94 158.44,82.00 158.44,82.00
        158.44,82.00 154.25,78.12 154.25,78.12
        154.25,78.12 43.45,78.36 43.45,78.36 Z" />
</svg>
