<?xml version="1.0" encoding="UTF-8" standalone="no"?>
<!DOCTYPE svg PUBLIC "-//W3C//DTD SVG 20010904//EN"
              "http://www.w3.org/TR/2001/REC-SVG-20010904/DTD/svg10.dtd">

<svg xmlns="http://www.w3.org/2000/svg"
     width="11.6444in" height="11.6444in"
     viewBox="0 0 1048 1048">
  <path id="Imported Path"
        fill="none" stroke="black" stroke-width="1"
        d="M 661.06,12.50
           C 661.06,12.50 386.94,12.50 386.94,12.50
             386.94,12.50 149.56,149.56 149.56,149.56
             149.56,149.56 12.50,386.94 12.50,386.94
             12.50,386.94 12.50,661.06 12.50,661.06
             12.50,661.06 149.56,898.44 149.56,898.44
             149.56,898.44 386.94,1035.50 386.94,1035.50
             386.94,1035.50 661.06,1035.50 661.06,1035.50
             661.06,1035.50 898.44,898.44 898.44,898.44
             898.44,898.44 1035.50,661.06 1035.50,661.06
             1035.50,661.06 1035.50,386.94 1035.50,386.94
             1035.50,386.94 898.44,149.56 898.44,149.56
             898.44,149.56 661.06,12.50 661.06,12.50 Z" />
</svg>
