<?xml version="1.0" encoding="UTF-8" standalone="no"?>
<!DOCTYPE svg PUBLIC "-//W3C//DTD SVG 20010904//EN"
              "http://www.w3.org/TR/2001/REC-SVG-20010904/DTD/svg10.dtd">

<svg xmlns="http://www.w3.org/2000/svg"
     width="0.666667in" height="0.666667in"
     viewBox="0 0 200 200">
  <path id="Unnamed #3"
        fill="none" stroke="black" stroke-width="1"
        d="M 112.31,33.44
           C 112.31,33.44 109.14,27.52 109.14,27.52M 153.65,115.76
           C 153.65,115.76 40.47,47.86 40.47,47.86M 44.42,134.52
           C 44.42,134.52 49.36,133.52 49.36,133.52M 119.50,177.25
           C 119.50,177.25 44.41,134.53 44.41,134.53
             44.41,134.53 40.47,47.86 40.47,47.86
             40.47,47.86 109.16,27.52 109.16,27.52
             109.16,27.52 175.85,59.42 175.85,59.42
             175.85,59.42 112.31,33.44 112.31,33.44
             112.31,33.44 153.64,115.76 153.64,115.76
             153.64,115.76 49.38,133.50 49.38,133.50
             49.38,133.50 119.50,177.25 119.50,177.25 Z" />
</svg>
