<?xml version="1.0" encoding="UTF-8" standalone="no"?>
<!-- Created with Inkscape (http://www.inkscape.org/) -->

<svg
 xmlns:svg="http://www.w3.org/2000/svg"
 xmlns="http://www.w3.org/2000/svg"
 version="1.1"
 width="720"
 height="720"
 id="svg2">
<defs
 id="defs4">
<marker
 refX="0"
 refY="0"
 orient="auto"
 id="Arrow1Lstart"
 style="overflow:visible">
<path
 d="M 0,0 5,-5 -12.5,0 5,5 0,0 z"
 transform="matrix(0.8,0,0,0.8,10,0)"
 id="path2995"
 style="fill-rule:evenodd;stroke:#000000;stroke-width:1pt;marker-start:none" />
</marker>
<marker
 refX="0"
 refY="0"
 orient="auto"
 id="Arrow1Lend"
 style="overflow:visible">
<path
 d="M 0,0 5,-5 -12.5,0 5,5 0,0 z"
 transform="matrix(-0.8,9.796850830579018e-17,-9.796850830579018e-17,-0.8,-10,1.224606353822377e-15)"
 id="path2998"
 style="fill-rule:evenodd;stroke:#000000;stroke-width:1pt;marker-start:none" />
</marker>
</defs>
<g
 transform="matrix(3.500000000000003,0,0,3.500000000000003,-831.6748467242365,-679.2464105268295)"
 id="g2885">
<path
 d="M 495.885498046875,296.8872985839844 A 99.82110595703125,99.82110595703125 0 0 1 482.512005682491,346.7978515625 l -86.4476135926472,-49.9105529785156 z"
 transform="matrix(0,-0.9016129318256719,0.9016129318256719,0,72.80109993738601,654.0243236086844)"
 id="path2861"
 style="fill:#ff0000;fill-opacity:1;stroke:none" />
<path
 d="M 495.885498046875,296.8872985839844 A 99.82110595703125,99.82110595703125 0 0 1 482.512005682491,346.7978515625 l -86.4476135926472,-49.9105529785156 z"
 transform="matrix(0.4508064659128359,-0.7808197033415991,0.7808197033415991,0.4508064659128359,-69.88531364267781,472.3437131515157)"
 id="path2863"
 style="fill:#ff8000;fill-opacity:1;stroke:none" />
<path
 d="M 495.885498046875,296.8872985839844 A 99.82110595703125,99.82110595703125 0 0 1 482.512005682491,346.7978515625 l -86.4476135926472,-49.9105529785156 z"
 transform="matrix(0.7808197033415988,-0.450806465912836,0.450806465912836,0.7808197033415988,-102.6150673493216,243.660482330511)"
 id="path2865"
 style="fill:#ffff00;fill-opacity:1;stroke:none" />
<path
 d="M 495.885498046875,296.8872985839844 A 99.82110595703125,99.82110595703125 0 0 1 482.512005682491,346.7978515625 l -86.4476135926472,-49.9105529785156 z"
 transform="matrix(0.9016129318256716,-2.514535888537006e-16,2.514535888537006e-16,0.9016129318256716,-16.61825010838067,29.25011816669848)"
 id="path2867"
 style="fill:#80ff00;fill-opacity:1;stroke:none" />
<path
 d="M 495.885498046875,296.8872985839844 A 99.82110595703125,99.82110595703125 0 0 1 482.512005682491,346.7978515625 l -86.4476135926472,-49.9105529785156 z"
 transform="matrix(0.7808197033415988,0.4508064659128355,-0.4508064659128355,0.7808197033415988,165.0623603487882,-113.4362954133655)"
 id="path2869"
 style="fill:#00ff00;fill-opacity:1;stroke:none" />
<path
 d="M 495.885498046875,296.8872985839844 A 99.82110595703125,99.82110595703125 0 0 1 482.512005682491,346.7978515625 l -86.4476135926472,-49.9105529785156 z"
 transform="matrix(0.4508064659128359,0.7808197033415984,-0.7808197033415984,0.4508064659128359,393.7455911697928,-146.1660491200091)"
 id="path2871"
 style="fill:#00ff80;fill-opacity:1;stroke:none" />
<path
 d="M 495.885498046875,296.8872985839844 A 99.82110595703125,99.82110595703125 0 0 1 482.512005682491,346.7978515625 l -86.4476135926472,-49.9105529785156 z"
 transform="matrix(3.376612140934543e-16,0.9016129318256711,-0.9016129318256711,3.376612140934543e-16,608.1559553336052,-60.16923187906809)"
 id="path2873"
 style="fill:#00ffff;fill-opacity:1;stroke:none" />
<path
 d="M 495.885498046875,296.8872985839844 A 99.82110595703125,99.82110595703125 0 0 1 482.512005682491,346.7978515625 l -86.4476135926472,-49.9105529785156 z"
 transform="matrix(-0.4508064659128352,0.7808197033415984,-0.7808197033415984,-0.4508064659128352,750.8423689136691,121.5113785781002)"
 id="path2875"
 style="fill:#0080ff;fill-opacity:1;stroke:none" />
<path
 d="M 495.885498046875,296.8872985839844 A 99.82110595703125,99.82110595703125 0 0 1 482.512005682491,346.7978515625 l -86.4476135926472,-49.9105529785156 z"
 transform="matrix(-0.780819703341598,0.4508064659128359,-0.4508064659128359,-0.780819703341598,783.5721226203128,350.1946093991051)"
 id="path2877"
 style="fill:#0000ff;fill-opacity:1;stroke:none" />
<path
 d="M 495.885498046875,296.8872985839844 A 99.82110595703125,99.82110595703125 0 0 1 482.512005682491,346.7978515625 l -86.4476135926472,-49.9105529785156 z"
 transform="matrix(-0.9016129318256709,5.330208930481862e-16,-5.330208930481862e-16,-0.9016129318256709,697.5753053793721,564.604973562917)"
 id="path2879"
 style="fill:#8000ff;fill-opacity:1;stroke:none" />
<path
 d="M 495.885498046875,296.8872985839844 A 99.82110595703125,99.82110595703125 0 0 1 482.512005682491,346.7978515625 l -86.4476135926472,-49.9105529785156 z"
 transform="matrix(-0.7808197033415984,-0.4508064659128351,0.4508064659128351,-0.7808197033415984,515.8946949222031,707.2913871429813)"
 id="path2881"
 style="fill:#ff00ff;fill-opacity:1;stroke:none" />
<path
 d="M 495.885498046875,296.8872985839844 A 99.82110595703125,99.82110595703125 0 0 1 482.512005682491,346.7978515625 l -86.4476135926472,-49.9105529785156 z"
 transform="matrix(-0.4508064659128359,-0.7808197033415979,0.7808197033415979,-0.4508064659128359,287.2114641011989,740.0211408496252)"
 id="path2883"
 style="fill:#ff0080;fill-opacity:1;stroke:none" />
</g>
</svg>
